<svg version="1.1" id="Layer_1" xmlns:x="ns_extend;" xmlns:i="ns_ai;" xmlns:graph="ns_graphs;" xmlns="http://www.w3.org/2000/svg" xmlns:xlink="http://www.w3.org/1999/xlink" x="0px" y="0px" viewBox="0 0 35.2 43.1" style="enable-background:new 0 0 35.2 43.1;" xml:space="preserve">
 <style type="text/css">
  .st0{fill:#091C35;}
 </style>
 <metadata>
  <sfw xmlns="ns_sfw;">
   <slices>
   </slices>
   <sliceSourceBounds bottomLeftOrigin="true" height="43.1" width="35.2" x="-96.1" y="1.3">
   </sliceSourceBounds>
  </sfw>
 </metadata>
 <g>
  <path class="st0" d="M26.1,20.7v-1.1c6.3-0.9,7.9-4.7,7.9-8.9S30.3,0,21.4,0h-5v5.7h5c4.8,0,6.3,1.5,6.3,5.6c0,4-1.5,6.2-6.3,6.2
		H5.8v25.7h15.7c10.3,0,13.8-5.9,13.8-12C35.2,25,33.3,21.6,26.1,20.7z M21.6,37.4h-9.4V23.1h9.4c5.6,0,7.5,1.5,7.5,7.5
		C29.1,36.5,27.2,37.4,21.6,37.4z M0,0.1v5.9h5.9v6.3H12V0.1H0z">
  </path>
 </g>
</svg>